<svg width="192" height="35" viewBox="0 0 192 35" fill="none" xmlns="http://www.w3.org/2000/svg">
<path d="M17.5 0L19.9652 9.10444L26.9612 2.77806L24.1128 11.77L33.4186 10.2302L26.1609 16.2547L34.8219 19.9905L25.4593 21.1349L30.7256 28.9601L22.2306 24.861L22.4303 34.2911L17.5 26.25L12.5697 34.2911L12.7694 24.861L4.27438 28.9601L9.54072 21.1349L0.178125 19.9905L8.83906 16.2547L1.58144 10.2302L10.8872 11.77L8.03879 2.77806L15.0348 9.10444L17.5 0Z" fill="#6B6B8A"/>
<path d="M53.52 25V13.22H49.36L49.28 15.62C49.2133 17.5 49.06 19.0533 48.82 20.28C48.58 21.5067 48.2333 22.4733 47.78 23.18C47.3267 23.8733 46.7533 24.3667 46.06 24.66C45.38 24.94 44.56 25.08 43.6 25.08V22.7C44.0933 22.7 44.52 22.5933 44.88 22.38C45.24 22.1667 45.54 21.78 45.78 21.22C46.0333 20.66 46.2333 19.8667 46.38 18.84C46.5267 17.8133 46.6267 16.4867 46.68 14.86L46.82 10.8H56.26V25H53.52ZM58.2656 21.9C58.2656 21.22 58.4523 20.6267 58.8256 20.12C59.2123 19.6 59.7456 19.2 60.4256 18.92C61.1056 18.64 61.8856 18.5 62.7656 18.5C63.2056 18.5 63.6523 18.5333 64.1056 18.6C64.559 18.6667 64.9523 18.7733 65.2856 18.92V18.36C65.2856 17.6933 65.0856 17.18 64.6856 16.82C64.299 16.46 63.719 16.28 62.9456 16.28C62.3723 16.28 61.8256 16.38 61.3056 16.58C60.7856 16.78 60.239 17.0733 59.6656 17.46L58.8056 15.7C59.499 15.2467 60.2056 14.9067 60.9256 14.68C61.659 14.4533 62.4256 14.34 63.2256 14.34C64.719 14.34 65.879 14.7133 66.7056 15.46C67.5456 16.2067 67.9656 17.2733 67.9656 18.66V22C67.9656 22.28 68.0123 22.48 68.1056 22.6C68.2123 22.72 68.379 22.7933 68.6056 22.82V25C68.3656 25.04 68.1456 25.0733 67.9456 25.1C67.759 25.1267 67.599 25.14 67.4656 25.14C66.9323 25.14 66.5256 25.02 66.2456 24.78C65.979 24.54 65.8123 24.2467 65.7456 23.9L65.6856 23.36C65.2323 23.9467 64.6656 24.4 63.9856 24.72C63.3056 25.04 62.6123 25.2 61.9056 25.2C61.2123 25.2 60.5856 25.06 60.0256 24.78C59.479 24.4867 59.0456 24.0933 58.7256 23.6C58.419 23.0933 58.2656 22.5267 58.2656 21.9ZM64.7856 22.44C64.9323 22.28 65.0523 22.12 65.1456 21.96C65.239 21.8 65.2856 21.6533 65.2856 21.52V20.46C64.9656 20.3267 64.619 20.2267 64.2456 20.16C63.8723 20.08 63.519 20.04 63.1856 20.04C62.4923 20.04 61.919 20.1933 61.4656 20.5C61.0256 20.7933 60.8056 21.1867 60.8056 21.68C60.8056 21.9467 60.879 22.2 61.0256 22.44C61.1723 22.68 61.3856 22.8733 61.6656 23.02C61.9456 23.1667 62.279 23.24 62.6656 23.24C63.0656 23.24 63.459 23.1667 63.8456 23.02C64.2323 22.86 64.5456 22.6667 64.7856 22.44ZM70.47 25V14.52H76.31C77.03 14.52 77.61 14.64 78.05 14.88C78.5033 15.12 78.8367 15.4333 79.05 15.82C79.2633 16.2067 79.37 16.62 79.37 17.06C79.37 17.6467 79.2367 18.16 78.97 18.6C78.7167 19.04 78.3167 19.38 77.77 19.62C78.3833 19.7933 78.8833 20.0933 79.27 20.52C79.6567 20.9333 79.85 21.48 79.85 22.16C79.85 22.8133 79.6967 23.3533 79.39 23.78C79.0833 24.1933 78.6433 24.5 78.07 24.7C77.4967 24.9 76.8167 25 76.03 25H70.47ZM73.01 23.18H75.95C76.19 23.18 76.41 23.12 76.61 23C76.81 22.88 76.9633 22.72 77.07 22.52C77.19 22.32 77.25 22.1 77.25 21.86C77.25 21.6067 77.1967 21.3867 77.09 21.2C76.9833 21 76.83 20.8467 76.63 20.74C76.4433 20.62 76.2233 20.56 75.97 20.56H73.01V23.18ZM73.01 18.88H75.63C75.87 18.88 76.0833 18.82 76.27 18.7C76.4567 18.58 76.5967 18.42 76.69 18.22C76.7967 18.02 76.85 17.8 76.85 17.56C76.85 17.2133 76.7367 16.9267 76.51 16.7C76.2967 16.46 76.01 16.34 75.65 16.34H73.01V18.88ZM81.7981 25V14.52H84.4781V18.48H85.3781L88.2181 14.52H91.1381L87.4181 19.58L91.5381 25H88.4781L85.3381 20.84H84.4781V25H81.7981ZM92.3867 21.9C92.3867 21.22 92.5734 20.6267 92.9467 20.12C93.3334 19.6 93.8667 19.2 94.5467 18.92C95.2267 18.64 96.0067 18.5 96.8867 18.5C97.3267 18.5 97.7734 18.5333 98.2267 18.6C98.6801 18.6667 99.0734 18.7733 99.4067 18.92V18.36C99.4067 17.6933 99.2067 17.18 98.8067 16.82C98.4201 16.46 97.8401 16.28 97.0667 16.28C96.4934 16.28 95.9467 16.38 95.4267 16.58C94.9067 16.78 94.3601 17.0733 93.7867 17.46L92.9267 15.7C93.6201 15.2467 94.3267 14.9067 95.0467 14.68C95.7801 14.4533 96.5467 14.34 97.3467 14.34C98.8401 14.34 100 14.7133 100.827 15.46C101.667 16.2067 102.087 17.2733 102.087 18.66V22C102.087 22.28 102.133 22.48 102.227 22.6C102.333 22.72 102.5 22.7933 102.727 22.82V25C102.487 25.04 102.267 25.0733 102.067 25.1C101.88 25.1267 101.72 25.14 101.587 25.14C101.053 25.14 100.647 25.02 100.367 24.78C100.1 24.54 99.9334 24.2467 99.8667 23.9L99.8067 23.36C99.3534 23.9467 98.7867 24.4 98.1067 24.72C97.4267 25.04 96.7334 25.2 96.0267 25.2C95.3334 25.2 94.7067 25.06 94.1467 24.78C93.6001 24.4867 93.1667 24.0933 92.8467 23.6C92.5401 23.0933 92.3867 22.5267 92.3867 21.9ZM98.9067 22.44C99.0534 22.28 99.1734 22.12 99.2667 21.96C99.3601 21.8 99.4067 21.6533 99.4067 21.52V20.46C99.0867 20.3267 98.7401 20.2267 98.3667 20.16C97.9934 20.08 97.6401 20.04 97.3067 20.04C96.6134 20.04 96.0401 20.1933 95.5867 20.5C95.1467 20.7933 94.9267 21.1867 94.9267 21.68C94.9267 21.9467 95.0001 22.2 95.1467 22.44C95.2934 22.68 95.5067 22.8733 95.7867 23.02C96.0667 23.1667 96.4001 23.24 96.7867 23.24C97.1867 23.24 97.5801 23.1667 97.9667 23.02C98.3534 22.86 98.6667 22.6667 98.9067 22.44ZM115.236 25V21.24C114.836 21.4133 114.429 21.54 114.016 21.62C113.616 21.7 113.156 21.74 112.636 21.74C111.529 21.74 110.662 21.4467 110.036 20.86C109.409 20.26 109.096 19.3867 109.096 18.24V14.52H111.776V17.88C111.776 18.5067 111.909 18.9667 112.176 19.26C112.456 19.5533 112.882 19.7 113.456 19.7C113.776 19.7 114.096 19.6667 114.416 19.6C114.736 19.5333 115.009 19.44 115.236 19.32V14.52H117.936V25H115.236ZM119.652 21.9C119.652 21.22 119.839 20.6267 120.212 20.12C120.599 19.6 121.132 19.2 121.812 18.92C122.492 18.64 123.272 18.5 124.152 18.5C124.592 18.5 125.039 18.5333 125.492 18.6C125.946 18.6667 126.339 18.7733 126.672 18.92V18.36C126.672 17.6933 126.472 17.18 126.072 16.82C125.686 16.46 125.106 16.28 124.332 16.28C123.759 16.28 123.212 16.38 122.692 16.58C122.172 16.78 121.626 17.0733 121.052 17.46L120.192 15.7C120.886 15.2467 121.592 14.9067 122.312 14.68C123.046 14.4533 123.812 14.34 124.612 14.34C126.106 14.34 127.266 14.7133 128.092 15.46C128.932 16.2067 129.352 17.2733 129.352 18.66V22C129.352 22.28 129.399 22.48 129.492 22.6C129.599 22.72 129.766 22.7933 129.992 22.82V25C129.752 25.04 129.532 25.0733 129.332 25.1C129.146 25.1267 128.986 25.14 128.852 25.14C128.319 25.14 127.912 25.02 127.632 24.78C127.366 24.54 127.199 24.2467 127.132 23.9L127.072 23.36C126.619 23.9467 126.052 24.4 125.372 24.72C124.692 25.04 123.999 25.2 123.292 25.2C122.599 25.2 121.972 25.06 121.412 24.78C120.866 24.4867 120.432 24.0933 120.112 23.6C119.806 23.0933 119.652 22.5267 119.652 21.9ZM126.172 22.44C126.319 22.28 126.439 22.12 126.532 21.96C126.626 21.8 126.672 21.6533 126.672 21.52V20.46C126.352 20.3267 126.006 20.2267 125.632 20.16C125.259 20.08 124.906 20.04 124.572 20.04C123.879 20.04 123.306 20.1933 122.852 20.5C122.412 20.7933 122.192 21.1867 122.192 21.68C122.192 21.9467 122.266 22.2 122.412 22.44C122.559 22.68 122.772 22.8733 123.052 23.02C123.332 23.1667 123.666 23.24 124.052 23.24C124.452 23.24 124.846 23.1667 125.232 23.02C125.619 22.86 125.932 22.6667 126.172 22.44ZM138.137 25.2C137.323 25.2 136.603 25.02 135.977 24.66C135.363 24.2867 134.883 23.7867 134.537 23.16V29.26H131.857V14.52H134.197V16.32C134.597 15.7067 135.103 15.2267 135.717 14.88C136.33 14.52 137.03 14.34 137.817 14.34C138.523 14.34 139.17 14.48 139.757 14.76C140.357 15.04 140.877 15.4333 141.317 15.94C141.757 16.4333 142.097 17.0067 142.337 17.66C142.59 18.3 142.717 18.9933 142.717 19.74C142.717 20.7533 142.517 21.6733 142.117 22.5C141.73 23.3267 141.19 23.9867 140.497 24.48C139.817 24.96 139.03 25.2 138.137 25.2ZM137.237 22.92C137.65 22.92 138.023 22.8333 138.357 22.66C138.69 22.4867 138.977 22.2533 139.217 21.96C139.47 21.6533 139.657 21.3133 139.777 20.94C139.91 20.5533 139.977 20.1533 139.977 19.74C139.977 19.3 139.903 18.8933 139.757 18.52C139.623 18.1467 139.423 17.82 139.157 17.54C138.89 17.2467 138.577 17.02 138.217 16.86C137.87 16.7 137.49 16.62 137.077 16.62C136.823 16.62 136.563 16.6667 136.297 16.76C136.043 16.84 135.797 16.96 135.557 17.12C135.317 17.28 135.103 17.4667 134.917 17.68C134.743 17.8933 134.617 18.1267 134.537 18.38V20.84C134.697 21.2267 134.91 21.58 135.177 21.9C135.457 22.22 135.777 22.4733 136.137 22.66C136.497 22.8333 136.863 22.92 137.237 22.92ZM149.373 25.2C148.519 25.2 147.753 25.06 147.073 24.78C146.393 24.4867 145.813 24.0867 145.333 23.58C144.866 23.0733 144.506 22.4933 144.253 21.84C143.999 21.1867 143.873 20.5 143.873 19.78C143.873 19.0467 143.999 18.3533 144.253 17.7C144.506 17.0467 144.866 16.4667 145.333 15.96C145.813 15.4533 146.393 15.06 147.073 14.78C147.753 14.4867 148.519 14.34 149.373 14.34C150.226 14.34 150.986 14.4867 151.653 14.78C152.333 15.06 152.913 15.4533 153.393 15.96C153.873 16.4667 154.233 17.0467 154.473 17.7C154.726 18.3533 154.853 19.0467 154.853 19.78C154.853 20.5 154.726 21.1867 154.473 21.84C154.233 22.4933 153.873 23.0733 153.393 23.58C152.926 24.0867 152.353 24.4867 151.673 24.78C150.993 25.06 150.226 25.2 149.373 25.2ZM146.633 19.78C146.633 20.3933 146.753 20.94 146.993 21.42C147.233 21.8867 147.559 22.2533 147.973 22.52C148.386 22.7867 148.853 22.92 149.373 22.92C149.879 22.92 150.339 22.7867 150.753 22.52C151.166 22.24 151.493 21.8667 151.733 21.4C151.986 20.92 152.113 20.3733 152.113 19.76C152.113 19.16 151.986 18.62 151.733 18.14C151.493 17.66 151.166 17.2867 150.753 17.02C150.339 16.7533 149.879 16.62 149.373 16.62C148.853 16.62 148.386 16.76 147.973 17.04C147.559 17.3067 147.233 17.68 146.993 18.16C146.753 18.6267 146.633 19.1667 146.633 19.78ZM155.801 27.54V22.66H156.081C156.348 22.66 156.595 22.5867 156.821 22.44C157.061 22.2933 157.268 22.0467 157.441 21.7C157.628 21.34 157.775 20.8467 157.881 20.22C158.001 19.5933 158.081 18.7933 158.121 17.82L158.241 14.52H166.101V22.66H167.561V27.54H165.221V25H158.161V27.54H155.801ZM159.461 22.66H163.421V16.78H160.581L160.521 18.08C160.481 18.96 160.415 19.7067 160.321 20.32C160.241 20.92 160.128 21.4133 159.981 21.8C159.848 22.1733 159.675 22.46 159.461 22.66ZM174.158 25.2C173.318 25.2 172.558 25.06 171.878 24.78C171.198 24.4867 170.618 24.0933 170.138 23.6C169.658 23.0933 169.285 22.52 169.018 21.88C168.765 21.2267 168.638 20.54 168.638 19.82C168.638 18.82 168.858 17.9067 169.298 17.08C169.751 16.2533 170.391 15.5933 171.218 15.1C172.058 14.5933 173.045 14.34 174.178 14.34C175.325 14.34 176.305 14.5933 177.118 15.1C177.931 15.5933 178.551 16.2533 178.978 17.08C179.418 17.8933 179.638 18.7733 179.638 19.72C179.638 19.88 179.631 20.0467 179.618 20.22C179.605 20.38 179.591 20.5133 179.578 20.62H171.478C171.531 21.1533 171.685 21.62 171.938 22.02C172.205 22.42 172.538 22.7267 172.938 22.94C173.351 23.14 173.791 23.24 174.258 23.24C174.791 23.24 175.291 23.1133 175.758 22.86C176.238 22.5933 176.565 22.2467 176.738 21.82L179.038 22.46C178.785 22.9933 178.418 23.4667 177.938 23.88C177.471 24.2933 176.918 24.62 176.278 24.86C175.638 25.0867 174.931 25.2 174.158 25.2ZM171.418 18.92H176.898C176.845 18.3867 176.691 17.9267 176.438 17.54C176.198 17.14 175.878 16.8333 175.478 16.62C175.078 16.3933 174.631 16.28 174.138 16.28C173.658 16.28 173.218 16.3933 172.818 16.62C172.431 16.8333 172.111 17.14 171.858 17.54C171.618 17.9267 171.471 18.3867 171.418 18.92ZM180.711 25L183.371 20.92C182.744 20.7467 182.244 20.4067 181.871 19.9C181.511 19.3933 181.331 18.7267 181.331 17.9C181.331 17.2067 181.491 16.6067 181.811 16.1C182.131 15.5933 182.571 15.2 183.131 14.92C183.691 14.6267 184.337 14.48 185.071 14.48H190.051V25H187.371V21.38H185.951L183.651 25H180.711ZM185.391 19.46H187.371V16.54H185.491C185.011 16.54 184.631 16.6733 184.351 16.94C184.071 17.2067 183.931 17.5533 183.931 17.98C183.931 18.4067 184.051 18.76 184.291 19.04C184.544 19.32 184.911 19.46 185.391 19.46Z" fill="#6B6B8A"/>
</svg>
