<svg width="189" height="35" viewBox="0 0 189 35" fill="none" xmlns="http://www.w3.org/2000/svg">
<path d="M17.5 0L19.9652 9.10444L26.9612 2.77806L24.1128 11.77L33.4186 10.2302L26.1609 16.2547L34.8219 19.9905L25.4593 21.1349L30.7256 28.9601L22.2306 24.861L22.4303 34.2911L17.5 26.25L12.5697 34.2911L12.7694 24.861L4.27438 28.9601L9.54072 21.1349L0.178125 19.9905L8.83906 16.2547L1.58144 10.2302L10.8872 11.77L8.03879 2.77806L15.0348 9.10444L17.5 0Z" fill="#6B6B8A"/>
<path d="M54.1 24.5V11.9H48.8L48.72 14.72C48.6533 16.6533 48.5067 18.26 48.28 19.54C48.0667 20.8067 47.7533 21.8067 47.34 22.54C46.94 23.26 46.44 23.7733 45.84 24.08C45.24 24.3867 44.5267 24.54 43.7 24.54V22.96C44.2067 22.96 44.6533 22.8333 45.04 22.58C45.4267 22.3267 45.7533 21.8867 46.02 21.26C46.3 20.62 46.52 19.7333 46.68 18.6C46.84 17.4667 46.9467 16.02 47 14.26L47.12 10.3H55.9V24.5H54.1ZM58.2094 21.48C58.2094 20.8133 58.396 20.24 58.7694 19.76C59.156 19.2667 59.6827 18.8867 60.3494 18.62C61.016 18.3533 61.7894 18.22 62.6694 18.22C63.136 18.22 63.6294 18.26 64.1494 18.34C64.6694 18.4067 65.1294 18.5133 65.5294 18.66V17.9C65.5294 17.1 65.2894 16.4733 64.8094 16.02C64.3294 15.5533 63.6494 15.32 62.7694 15.32C62.196 15.32 61.6427 15.4267 61.1094 15.64C60.5894 15.84 60.036 16.1333 59.4494 16.52L58.8094 15.28C59.4894 14.8133 60.1694 14.4667 60.8494 14.24C61.5294 14 62.236 13.88 62.9694 13.88C64.3027 13.88 65.356 14.2533 66.1294 15C66.9027 15.7333 67.2894 16.76 67.2894 18.08V22.5C67.2894 22.7133 67.3294 22.8733 67.4094 22.98C67.5027 23.0733 67.6494 23.1267 67.8494 23.14V24.5C67.676 24.5267 67.5227 24.5467 67.3894 24.56C67.2694 24.5733 67.1694 24.58 67.0894 24.58C66.676 24.58 66.3627 24.4667 66.1494 24.24C65.9494 24.0133 65.836 23.7733 65.8094 23.52L65.7694 22.86C65.316 23.4467 64.7227 23.9 63.9894 24.22C63.256 24.54 62.5294 24.7 61.8094 24.7C61.116 24.7 60.496 24.56 59.9494 24.28C59.4027 23.9867 58.976 23.6 58.6694 23.12C58.3627 22.6267 58.2094 22.08 58.2094 21.48ZM65.0094 22.22C65.1694 22.0333 65.296 21.8467 65.3894 21.66C65.4827 21.46 65.5294 21.2933 65.5294 21.16V19.86C65.116 19.7 64.6827 19.58 64.2294 19.5C63.776 19.4067 63.3294 19.36 62.8894 19.36C61.996 19.36 61.2694 19.54 60.7094 19.9C60.1627 20.2467 59.8894 20.7267 59.8894 21.34C59.8894 21.6733 59.976 22 60.1494 22.32C60.336 22.6267 60.6027 22.88 60.9494 23.08C61.3094 23.28 61.7494 23.38 62.2694 23.38C62.816 23.38 63.336 23.2733 63.8294 23.06C64.3227 22.8333 64.716 22.5533 65.0094 22.22ZM70.0836 24.5V14.06H75.4836C76.1103 14.06 76.6303 14.1867 77.0436 14.44C77.4569 14.68 77.7636 14.9933 77.9636 15.38C78.1769 15.7667 78.2836 16.18 78.2836 16.62C78.2836 17.18 78.1503 17.6867 77.8836 18.14C77.6169 18.58 77.2303 18.9133 76.7236 19.14C77.3236 19.3133 77.8103 19.6267 78.1836 20.08C78.5569 20.52 78.7436 21.0667 78.7436 21.72C78.7436 22.3067 78.6036 22.8067 78.3236 23.22C78.0436 23.6333 77.6503 23.9533 77.1436 24.18C76.6369 24.3933 76.0503 24.5 75.3836 24.5H70.0836ZM71.7636 23.26H75.3436C75.6636 23.26 75.9503 23.18 76.2036 23.02C76.4703 22.86 76.6769 22.6467 76.8236 22.38C76.9703 22.1133 77.0436 21.8333 77.0436 21.54C77.0436 21.22 76.9703 20.9333 76.8236 20.68C76.6903 20.4133 76.4969 20.2067 76.2436 20.06C76.0036 19.9 75.7236 19.82 75.4036 19.82H71.7636V23.26ZM71.7636 18.66H75.0236C75.3436 18.66 75.6236 18.58 75.8636 18.42C76.1036 18.2467 76.2903 18.0267 76.4236 17.76C76.5569 17.4933 76.6236 17.2133 76.6236 16.92C76.6236 16.48 76.4769 16.1 76.1836 15.78C75.9036 15.46 75.5369 15.3 75.0836 15.3H71.7636V18.66ZM80.9625 24.5V14.06H82.7225V18.36H83.8825L87.1625 14.06H89.1625L85.2625 19.12L89.6225 24.5H87.5825L83.8825 19.98H82.7225V24.5H80.9625ZM90.5336 21.48C90.5336 20.8133 90.7203 20.24 91.0936 19.76C91.4803 19.2667 92.0069 18.8867 92.6736 18.62C93.3403 18.3533 94.1136 18.22 94.9936 18.22C95.4603 18.22 95.9536 18.26 96.4736 18.34C96.9936 18.4067 97.4536 18.5133 97.8536 18.66V17.9C97.8536 17.1 97.6136 16.4733 97.1336 16.02C96.6536 15.5533 95.9736 15.32 95.0936 15.32C94.5203 15.32 93.9669 15.4267 93.4336 15.64C92.9136 15.84 92.3603 16.1333 91.7736 16.52L91.1336 15.28C91.8136 14.8133 92.4936 14.4667 93.1736 14.24C93.8536 14 94.5603 13.88 95.2936 13.88C96.6269 13.88 97.6803 14.2533 98.4536 15C99.2269 15.7333 99.6136 16.76 99.6136 18.08V22.5C99.6136 22.7133 99.6536 22.8733 99.7336 22.98C99.8269 23.0733 99.9736 23.1267 100.174 23.14V24.5C100 24.5267 99.8469 24.5467 99.7136 24.56C99.5936 24.5733 99.4936 24.58 99.4136 24.58C99.0003 24.58 98.6869 24.4667 98.4736 24.24C98.2736 24.0133 98.1603 23.7733 98.1336 23.52L98.0936 22.86C97.6403 23.4467 97.0469 23.9 96.3136 24.22C95.5803 24.54 94.8536 24.7 94.1336 24.7C93.4403 24.7 92.8203 24.56 92.2736 24.28C91.7269 23.9867 91.3003 23.6 90.9936 23.12C90.6869 22.6267 90.5336 22.08 90.5336 21.48ZM97.3336 22.22C97.4936 22.0333 97.6203 21.8467 97.7136 21.66C97.8069 21.46 97.8536 21.2933 97.8536 21.16V19.86C97.4403 19.7 97.0069 19.58 96.5536 19.5C96.1003 19.4067 95.6536 19.36 95.2136 19.36C94.3203 19.36 93.5936 19.54 93.0336 19.9C92.4869 20.2467 92.2136 20.7267 92.2136 21.34C92.2136 21.6733 92.3003 22 92.4736 22.32C92.6603 22.6267 92.9269 22.88 93.2736 23.08C93.6336 23.28 94.0736 23.38 94.5936 23.38C95.1403 23.38 95.6603 23.2733 96.1536 23.06C96.6469 22.8333 97.0403 22.5533 97.3336 22.22ZM115.566 24.5V18.56C115.313 18.6667 115.013 18.78 114.666 18.9C114.32 19.02 113.92 19.12 113.466 19.2C113.026 19.2667 112.54 19.3 112.006 19.3C110.433 19.3 109.266 18.9533 108.506 18.26C107.746 17.5533 107.366 16.4333 107.366 14.9V10.3H109.106V14.7C109.106 15.7267 109.353 16.48 109.846 16.96C110.353 17.4267 111.173 17.66 112.306 17.66C112.893 17.66 113.486 17.5933 114.086 17.46C114.7 17.3267 115.193 17.16 115.566 16.96V10.3H117.326V24.5H115.566ZM119.635 21.48C119.635 20.8133 119.822 20.24 120.195 19.76C120.582 19.2667 121.108 18.8867 121.775 18.62C122.442 18.3533 123.215 18.22 124.095 18.22C124.562 18.22 125.055 18.26 125.575 18.34C126.095 18.4067 126.555 18.5133 126.955 18.66V17.9C126.955 17.1 126.715 16.4733 126.235 16.02C125.755 15.5533 125.075 15.32 124.195 15.32C123.622 15.32 123.068 15.4267 122.535 15.64C122.015 15.84 121.462 16.1333 120.875 16.52L120.235 15.28C120.915 14.8133 121.595 14.4667 122.275 14.24C122.955 14 123.662 13.88 124.395 13.88C125.728 13.88 126.782 14.2533 127.555 15C128.328 15.7333 128.715 16.76 128.715 18.08V22.5C128.715 22.7133 128.755 22.8733 128.835 22.98C128.928 23.0733 129.075 23.1267 129.275 23.14V24.5C129.102 24.5267 128.948 24.5467 128.815 24.56C128.695 24.5733 128.595 24.58 128.515 24.58C128.102 24.58 127.788 24.4667 127.575 24.24C127.375 24.0133 127.262 23.7733 127.235 23.52L127.195 22.86C126.742 23.4467 126.148 23.9 125.415 24.22C124.682 24.54 123.955 24.7 123.235 24.7C122.542 24.7 121.922 24.56 121.375 24.28C120.828 23.9867 120.402 23.6 120.095 23.12C119.788 22.6267 119.635 22.08 119.635 21.48ZM126.435 22.22C126.595 22.0333 126.722 21.8467 126.815 21.66C126.908 21.46 126.955 21.2933 126.955 21.16V19.86C126.542 19.7 126.108 19.58 125.655 19.5C125.202 19.4067 124.755 19.36 124.315 19.36C123.422 19.36 122.695 19.54 122.135 19.9C121.588 20.2467 121.315 20.7267 121.315 21.34C121.315 21.6733 121.402 22 121.575 22.32C121.762 22.6267 122.028 22.88 122.375 23.08C122.735 23.28 123.175 23.38 123.695 23.38C124.242 23.38 124.762 23.2733 125.255 23.06C125.748 22.8333 126.142 22.5533 126.435 22.22ZM137.149 24.7C136.296 24.7 135.536 24.4867 134.869 24.06C134.203 23.6333 133.676 23.0933 133.289 22.44V28.76H131.529V14.06H133.089V16.02C133.503 15.38 134.043 14.8667 134.709 14.48C135.376 14.08 136.103 13.88 136.889 13.88C137.609 13.88 138.269 14.0267 138.869 14.32C139.469 14.6133 139.989 15.0133 140.429 15.52C140.869 16.0267 141.209 16.6067 141.449 17.26C141.703 17.9 141.829 18.5733 141.829 19.28C141.829 20.2667 141.629 21.1733 141.229 22C140.843 22.8267 140.296 23.4867 139.589 23.98C138.883 24.46 138.069 24.7 137.149 24.7ZM136.609 23.18C137.129 23.18 137.596 23.0733 138.009 22.86C138.436 22.6333 138.796 22.34 139.089 21.98C139.396 21.6067 139.629 21.1867 139.789 20.72C139.949 20.2533 140.029 19.7733 140.029 19.28C140.029 18.76 139.936 18.2667 139.749 17.8C139.576 17.3333 139.323 16.92 138.989 16.56C138.669 16.2 138.289 15.92 137.849 15.72C137.423 15.5067 136.956 15.4 136.449 15.4C136.129 15.4 135.796 15.46 135.449 15.58C135.116 15.7 134.796 15.8733 134.489 16.1C134.183 16.3133 133.923 16.56 133.709 16.84C133.496 17.12 133.356 17.42 133.289 17.74V20.72C133.489 21.1733 133.756 21.5867 134.089 21.96C134.423 22.3333 134.809 22.6333 135.249 22.86C135.689 23.0733 136.143 23.18 136.609 23.18ZM148.55 24.7C147.764 24.7 147.05 24.56 146.41 24.28C145.77 23.9867 145.217 23.5933 144.75 23.1C144.284 22.5933 143.924 22.0133 143.67 21.36C143.417 20.7067 143.29 20.02 143.29 19.3C143.29 18.5667 143.417 17.8733 143.67 17.22C143.924 16.5667 144.284 15.9933 144.75 15.5C145.217 14.9933 145.77 14.6 146.41 14.32C147.064 14.0267 147.777 13.88 148.55 13.88C149.337 13.88 150.05 14.0267 150.69 14.32C151.33 14.6 151.884 14.9933 152.35 15.5C152.83 15.9933 153.197 16.5667 153.45 17.22C153.704 17.8733 153.83 18.5667 153.83 19.3C153.83 20.02 153.704 20.7067 153.45 21.36C153.197 22.0133 152.837 22.5933 152.37 23.1C151.904 23.5933 151.344 23.9867 150.69 24.28C150.05 24.56 149.337 24.7 148.55 24.7ZM145.09 19.32C145.09 20.04 145.244 20.6933 145.55 21.28C145.87 21.8667 146.29 22.3333 146.81 22.68C147.33 23.0133 147.91 23.18 148.55 23.18C149.19 23.18 149.77 23.0067 150.29 22.66C150.824 22.3133 151.244 21.8467 151.55 21.26C151.87 20.66 152.03 20 152.03 19.28C152.03 18.56 151.87 17.9067 151.55 17.32C151.244 16.7333 150.824 16.2667 150.29 15.92C149.77 15.5733 149.19 15.4 148.55 15.4C147.91 15.4 147.33 15.58 146.81 15.94C146.29 16.2867 145.87 16.7533 145.55 17.34C145.244 17.9267 145.09 18.5867 145.09 19.32ZM154.803 26.96V22.94H155.023C155.316 22.94 155.583 22.8533 155.823 22.68C156.076 22.5067 156.296 22.2067 156.483 21.78C156.683 21.34 156.843 20.74 156.963 19.98C157.083 19.22 157.163 18.2533 157.203 17.08L157.303 14.06H164.403V22.94H165.823V26.96H164.263V24.5H156.363V26.96H154.803ZM157.483 22.94H162.643V15.62H158.863L158.803 17.24C158.763 18.3733 158.683 19.3267 158.563 20.1C158.456 20.86 158.31 21.4667 158.123 21.92C157.95 22.3733 157.736 22.7133 157.483 22.94ZM172.399 24.7C171.613 24.7 170.893 24.56 170.239 24.28C169.599 23.9867 169.039 23.5933 168.559 23.1C168.093 22.5933 167.726 22.0133 167.459 21.36C167.206 20.7067 167.079 20.0133 167.079 19.28C167.079 18.2933 167.306 17.3933 167.759 16.58C168.213 15.7667 168.839 15.1133 169.639 14.62C170.453 14.1267 171.379 13.88 172.419 13.88C173.473 13.88 174.386 14.1333 175.159 14.64C175.946 15.1333 176.553 15.7867 176.979 16.6C177.419 17.4 177.639 18.2667 177.639 19.2C177.639 19.3333 177.633 19.4667 177.619 19.6C177.619 19.72 177.613 19.8133 177.599 19.88H168.939C168.993 20.56 169.179 21.1667 169.499 21.7C169.833 22.22 170.259 22.6333 170.779 22.94C171.299 23.2333 171.859 23.38 172.459 23.38C173.099 23.38 173.699 23.22 174.259 22.9C174.833 22.58 175.226 22.16 175.439 21.64L176.959 22.06C176.733 22.5667 176.393 23.02 175.939 23.42C175.499 23.82 174.973 24.1333 174.359 24.36C173.759 24.5867 173.106 24.7 172.399 24.7ZM168.879 18.66H175.999C175.946 17.98 175.753 17.38 175.419 16.86C175.086 16.34 174.659 15.9333 174.139 15.64C173.619 15.3467 173.046 15.2 172.419 15.2C171.806 15.2 171.239 15.3467 170.719 15.64C170.199 15.9333 169.773 16.34 169.439 16.86C169.119 17.38 168.933 17.98 168.879 18.66ZM178.816 24.5L181.776 20.3C181.096 20.1667 180.549 19.8467 180.136 19.34C179.722 18.82 179.516 18.1267 179.516 17.26C179.516 16.6333 179.662 16.08 179.956 15.6C180.249 15.12 180.656 14.74 181.176 14.46C181.709 14.18 182.329 14.04 183.036 14.04H187.316V24.5H185.556V20.58H183.516L180.756 24.5H178.816ZM183.156 19.28H185.556V15.42H183.356C182.729 15.42 182.229 15.6 181.856 15.96C181.482 16.3067 181.296 16.7533 181.296 17.3C181.296 17.8467 181.449 18.3133 181.756 18.7C182.076 19.0867 182.542 19.28 183.156 19.28Z" fill="#6B6B8A"/>
</svg>
